<svg xmlns="http://www.w3.org/2000/svg" viewBox="0 0 128 128" width="128" height="128">
  <defs>
    <linearGradient id="g" x1="0%" y1="0%" x2="100%" y2="100%">
      <stop offset="0%" stop-color="#06b6d4"/>
      <stop offset="100%" stop-color="#3b82f6"/>
    </linearGradient>
  </defs>
  <path d="M64 8 L112 32 L112 72 C112 100 64 124 64 124 C64 124 16 100 16 72 L16 32 Z" fill="url(#g)" opacity="0.15"/>
  <path d="M64 8 L112 32 L112 72 C112 100 64 124 64 124 C64 124 16 100 16 72 L16 32 Z" fill="none" stroke="url(#g)" stroke-width="3" stroke-linejoin="round"/>
  <line x1="64" y1="40" x2="64" y2="52" stroke="url(#g)" stroke-width="3" stroke-linecap="round"/>
  <line x1="64" y1="76" x2="64" y2="88" stroke="url(#g)" stroke-width="3" stroke-linecap="round"/>
  <line x1="40" y1="64" x2="52" y2="64" stroke="url(#g)" stroke-width="3" stroke-linecap="round"/>
  <line x1="76" y1="64" x2="88" y2="64" stroke="url(#g)" stroke-width="3" stroke-linecap="round"/>
  <circle cx="64" cy="64" r="4" fill="url(#g)"/>
</svg>
